<svg xmlns="http://www.w3.org/2000/svg" viewBox="0 0 100 100">
  <defs>
    <linearGradient id="wg" x1="0" y1="0" x2="0" y2="1">
      <stop offset="0" stop-color="#ffffff"/>
      <stop offset="1" stop-color="#cdd3f0"/>
    </linearGradient>
    <linearGradient id="gg" x1="0" y1="0" x2="0" y2="1">
      <stop offset="0" stop-color="#FFE680"/>
      <stop offset="1" stop-color="#FFB300"/>
    </linearGradient>
  </defs>
  <path d="M8,26 Q9,18 18,18 L46,22 L46,80 L17,84 Q9,83 8,75 Z" fill="url(#wg)"/>
  <path d="M44,22 L46,22 L46,80 L44,80 Z" fill="rgba(100,110,180,0.15)"/>
  <path d="M92,26 Q91,18 82,18 L54,22 L54,80 L83,84 Q91,83 92,75 Z" fill="url(#gg)"/>
  <path d="M54,22 L56,22 L56,80 L54,80 Z" fill="rgba(100,60,0,0.15)"/>
  <path d="M46,22 L54,22 L54,80 L50,82 L46,80 Z" fill="rgba(255,255,255,0.3)"/>
  <rect x="13" y="32" width="25" height="3" rx="1.5" fill="#7B89C9"/>
  <rect x="13" y="41" width="25" height="3" rx="1.5" fill="#7B89C9"/>
  <rect x="13" y="50" width="25" height="3" rx="1.5" fill="#7B89C9"/>
  <rect x="13" y="59" width="18" height="3" rx="1.5" fill="#7B89C9" opacity="0.7"/>
  <rect x="13" y="68" width="12" height="3" rx="1.5" fill="#7B89C9" opacity="0.5"/>
  <rect x="62" y="32" width="25" height="3" rx="1.5" fill="#7a4c00" opacity="0.5"/>
  <rect x="62" y="41" width="25" height="3" rx="1.5" fill="#7a4c00" opacity="0.5"/>
  <rect x="62" y="50" width="25" height="3" rx="1.5" fill="#7a4c00" opacity="0.5"/>
  <rect x="62" y="59" width="18" height="3" rx="1.5" fill="#7a4c00" opacity="0.35"/>
  <rect x="62" y="68" width="12" height="3" rx="1.5" fill="#7a4c00" opacity="0.25"/>
  <circle cx="50" cy="13" r="9" fill="url(#gg)"/>
  <polygon points="50,6.5 51.8,11.5 57,11.5 52.8,14.5 54.5,19.5 50,16.5 45.5,19.5 47.2,14.5 43,11.5 48.2,11.5" fill="white"/>
</svg>
